<mxfile host="app.diagrams.net" modified="2022-06-18T15:02:14.312Z" agent="5.0 (Macintosh; Intel Mac OS X 10_15_7) AppleWebKit/605.1.15 (KHTML, like Gecko) Version/15.5 Safari/605.1.15" etag="wpwbZOA0Nz12QU9dyG4j" version="20.0.1" type="github">
  <diagram id="8FAyyv0OeRqAY6xSwsuC" name="Page-1">
    <mxGraphModel dx="946" dy="535" grid="1" gridSize="10" guides="1" tooltips="1" connect="1" arrows="1" fold="1" page="1" pageScale="1" pageWidth="827" pageHeight="1169" math="0" shadow="0">
      <root>
        <mxCell id="0" />
        <mxCell id="1" parent="0" />
        <mxCell id="DQnbnJLm6Z0NJb9ANL9x-30" value="" style="swimlane;startSize=0;" vertex="1" parent="1">
          <mxGeometry x="60" y="60" width="660" height="270" as="geometry">
            <mxRectangle x="60" y="60" width="50" height="40" as="alternateBounds" />
          </mxGeometry>
        </mxCell>
        <mxCell id="DQnbnJLm6Z0NJb9ANL9x-31" value="" style="edgeStyle=orthogonalEdgeStyle;rounded=0;orthogonalLoop=1;jettySize=auto;html=1;" edge="1" parent="1" target="DQnbnJLm6Z0NJb9ANL9x-39">
          <mxGeometry relative="1" as="geometry">
            <mxPoint x="170" y="240" as="sourcePoint" />
          </mxGeometry>
        </mxCell>
        <mxCell id="DQnbnJLm6Z0NJb9ANL9x-32" value="" style="edgeStyle=orthogonalEdgeStyle;rounded=0;orthogonalLoop=1;jettySize=auto;html=1;" edge="1" parent="1" source="DQnbnJLm6Z0NJb9ANL9x-34" target="DQnbnJLm6Z0NJb9ANL9x-39">
          <mxGeometry relative="1" as="geometry" />
        </mxCell>
        <mxCell id="DQnbnJLm6Z0NJb9ANL9x-33" style="edgeStyle=orthogonalEdgeStyle;rounded=0;orthogonalLoop=1;jettySize=auto;html=1;entryX=0.25;entryY=0;entryDx=0;entryDy=0;" edge="1" parent="1" source="DQnbnJLm6Z0NJb9ANL9x-34" target="DQnbnJLm6Z0NJb9ANL9x-41">
          <mxGeometry relative="1" as="geometry" />
        </mxCell>
        <mxCell id="DQnbnJLm6Z0NJb9ANL9x-34" value="Recipient Public Key" style="ellipse;whiteSpace=wrap;html=1;" vertex="1" parent="1">
          <mxGeometry x="210" y="90" width="120" height="80" as="geometry" />
        </mxCell>
        <mxCell id="DQnbnJLm6Z0NJb9ANL9x-35" style="edgeStyle=orthogonalEdgeStyle;rounded=0;orthogonalLoop=1;jettySize=auto;html=1;entryX=0.5;entryY=0;entryDx=0;entryDy=0;" edge="1" parent="1" source="DQnbnJLm6Z0NJb9ANL9x-36" target="DQnbnJLm6Z0NJb9ANL9x-41">
          <mxGeometry relative="1" as="geometry" />
        </mxCell>
        <mxCell id="DQnbnJLm6Z0NJb9ANL9x-36" value="UUID" style="ellipse;whiteSpace=wrap;html=1;" vertex="1" parent="1">
          <mxGeometry x="440" y="80" width="120" height="80" as="geometry" />
        </mxCell>
        <mxCell id="DQnbnJLm6Z0NJb9ANL9x-37" value="Server" style="ellipse;shape=cloud;whiteSpace=wrap;html=1;" vertex="1" parent="1">
          <mxGeometry x="534" y="200" width="120" height="80" as="geometry" />
        </mxCell>
        <mxCell id="DQnbnJLm6Z0NJb9ANL9x-38" value="" style="edgeStyle=orthogonalEdgeStyle;rounded=0;orthogonalLoop=1;jettySize=auto;html=1;" edge="1" parent="1" source="DQnbnJLm6Z0NJb9ANL9x-39" target="DQnbnJLm6Z0NJb9ANL9x-41">
          <mxGeometry relative="1" as="geometry" />
        </mxCell>
        <mxCell id="DQnbnJLm6Z0NJb9ANL9x-39" value="Encrypt" style="shape=step;perimeter=stepPerimeter;whiteSpace=wrap;html=1;fixedSize=1;" vertex="1" parent="1">
          <mxGeometry x="210" y="200" width="120" height="80" as="geometry" />
        </mxCell>
        <mxCell id="DQnbnJLm6Z0NJb9ANL9x-40" value="" style="edgeStyle=orthogonalEdgeStyle;rounded=0;orthogonalLoop=1;jettySize=auto;html=1;" edge="1" parent="1" source="DQnbnJLm6Z0NJb9ANL9x-41" target="DQnbnJLm6Z0NJb9ANL9x-37">
          <mxGeometry relative="1" as="geometry" />
        </mxCell>
        <mxCell id="DQnbnJLm6Z0NJb9ANL9x-41" value="Send" style="shape=step;perimeter=stepPerimeter;whiteSpace=wrap;html=1;fixedSize=1;" vertex="1" parent="1">
          <mxGeometry x="390" y="200" width="120" height="80" as="geometry" />
        </mxCell>
        <mxCell id="DQnbnJLm6Z0NJb9ANL9x-42" value="Position" style="triangle;whiteSpace=wrap;html=1;" vertex="1" parent="1">
          <mxGeometry x="110" y="200" width="60" height="80" as="geometry" />
        </mxCell>
      </root>
    </mxGraphModel>
  </diagram>
</mxfile>
